<svg width="96" height="96" viewBox="0 0 96 96" fill="none" xmlns="http://www.w3.org/2000/svg">
<g id="Icon-32 / Calendar">
<path id="Shape" fill-rule="evenodd" clip-rule="evenodd" d="M48 96C74.5097 96 96 74.5097 96 48C96 21.4903 74.5097 0 48 0C21.4903 0 0 21.4903 0 48C0 74.5097 21.4903 96 48 96ZM33 27C33 25.3431 34.3431 24 36 24C37.6569 24 39 25.3431 39 27V30H57V27C57 25.3431 58.3431 24 60 24C61.6569 24 63 25.3431 63 27V30C66.3137 30 69 32.6863 69 36V39H27V36C27 32.6863 29.6863 30 33 30V27ZM69 66V45H27V66C27 69.3137 29.6863 72 33 72H63C66.3137 72 69 69.3137 69 66ZM36 66C37.6569 66 39 64.6569 39 63C39 61.3431 37.6569 60 36 60C34.3431 60 33 61.3431 33 63C33 64.6569 34.3431 66 36 66Z" fill="white"/>
</g>
</svg>
