<svg width="96" height="97" viewBox="0 0 96 97" fill="none" xmlns="http://www.w3.org/2000/svg">
<g id="Icon-32 / Download">
<path id="Shape" fill-rule="evenodd" clip-rule="evenodd" d="M48 96.3335C74.5097 96.3335 96 74.8432 96 48.3335C96 21.8238 74.5097 0.333496 48 0.333496C21.4903 0.333496 0 21.8238 0 48.3335C0 74.8432 21.4903 96.3335 48 96.3335ZM75 48.3335C75 63.2452 62.9117 75.3335 48 75.3335C33.0883 75.3335 21 63.2452 21 48.3335C21 33.4218 33.0883 21.3335 48 21.3335C62.9117 21.3335 75 33.4218 75 48.3335ZM48 33.3335C49.6569 33.3335 51 34.6766 51 36.3335V50.0909L54.8787 46.2122C56.0503 45.0406 57.9497 45.0406 59.1213 46.2122C60.2929 47.3837 60.2929 49.2832 59.1213 50.4548L52.2426 57.3335H57C58.6569 57.3335 60 58.6766 60 60.3335C60 61.9904 58.6569 63.3335 57 63.3335H39C37.3431 63.3335 36 61.9904 36 60.3335C36 58.6766 37.3431 57.3335 39 57.3335H43.7574L36.8787 50.4548C35.7071 49.2832 35.7071 47.3837 36.8787 46.2122C38.0503 45.0406 39.9497 45.0406 41.1213 46.2122L45 50.0909V36.3335C45 34.6766 46.3431 33.3335 48 33.3335Z" fill="white"/>
</g>
</svg>
