<svg width="16" height="16" viewBox="0 0 16 16" fill="none" xmlns="http://www.w3.org/2000/svg">
<g id="Icon 16 / Phone">
<path id="Shape" fill-rule="evenodd" clip-rule="evenodd" d="M12.5 6C13.8807 6 15 4.88071 15 3.5C15 2.11929 13.8807 1 12.5 1C11.1193 1 10 2.11929 10 3.5C10 4.88071 11.1193 6 12.5 6ZM0.0892914 2.02624C0.335857 3.99979 1.22849 8.41219 4.40879 11.5926C7.58911 14.773 11.9996 15.6637 13.9721 15.9093C14.532 15.979 14.997 15.5342 14.997 14.97L14.9972 11.4263C14.9973 11.0475 14.7832 10.7012 14.4444 10.5318L12.1803 9.39994C11.7953 9.2075 11.3304 9.28295 11.0261 9.58726L9.68424 10.929C9.40635 11.2069 8.9918 11.2939 8.64717 11.1051C8.13454 10.8242 7.34192 10.3129 6.51517 9.48613C5.68815 8.6591 5.17562 7.86505 4.89379 7.35146C4.70445 7.00642 4.79136 6.59109 5.06968 6.31281L6.4106 4.97206C6.715 4.6677 6.79048 4.20269 6.59797 3.81767L5.46595 1.55359C5.29656 1.2148 4.95029 1.00079 4.57152 1.0008L1.02866 1.00084C0.464268 1.00085 0.019321 1.46618 0.0892914 2.02624Z" fill="#1F1F1F"/>
</g>
</svg>
