<svg width="96" height="96" viewBox="0 0 96 96" fill="none" xmlns="http://www.w3.org/2000/svg">
<g id="Icon-32 / Time">
<path id="Shape" fill-rule="evenodd" clip-rule="evenodd" d="M48 96C74.5097 96 96 74.5097 96 48C96 21.4903 74.5097 0 48 0C21.4903 0 0 21.4903 0 48C0 74.5097 21.4903 96 48 96ZM75 48C75 62.9117 62.9117 75 48 75C33.0883 75 21 62.9117 21 48C21 33.0883 33.0883 21 48 21C62.9117 21 75 33.0883 75 48ZM48 30C49.6569 30 51 31.3431 51 33V45H63C64.6569 45 66 46.3431 66 48C66 49.6569 64.6569 51 63 51H45V33C45 31.3431 46.3431 30 48 30Z" fill="white"/>
</g>
</svg>
