<svg width="32" height="32" viewBox="0 0 32 32" fill="none" xmlns="http://www.w3.org/2000/svg">
<g id="Icon-SOC / WA">
<circle id="Ellipse" cx="16" cy="16" r="16" fill="#1F1F1F"/>
<path id="Shape" fill-rule="evenodd" clip-rule="evenodd" d="M24 16.0028C23.9982 20.4126 20.4096 24 16 24L15.9972 23.9995C14.5644 23.9996 13.158 23.6145 11.925 22.8846L11.6329 22.7116L8.60503 23.5053L9.41356 20.5547L9.22297 20.2524C8.42192 18.9775 7.99794 17.502 8.00001 15.9963C8.00001 11.587 11.5904 8 16.0032 8C17.0538 8.00036 18.0941 8.20766 19.0645 8.61004C20.035 9.01243 20.9167 9.60202 21.6593 10.3452C22.4019 11.0883 22.9908 11.9704 23.3924 12.9412C23.794 13.9119 24.0005 14.9522 24 16.0028ZM13.5908 12.0053C13.7317 12.0114 13.8862 12.0183 14.0339 12.3718C14.1347 12.6138 14.3045 13.0648 14.4395 13.4237C14.5388 13.6874 14.6193 13.9013 14.6401 13.9463C14.6892 14.0526 14.7224 14.1764 14.6567 14.3181C14.6467 14.3397 14.6374 14.3601 14.6286 14.3796C14.5795 14.4876 14.5435 14.5671 14.4599 14.6719C14.4264 14.714 14.3918 14.7594 14.3572 14.8047C14.29 14.8928 14.2229 14.9808 14.1646 15.0437C14.066 15.1508 13.9629 15.264 14.0781 15.4765C14.1933 15.6891 14.5884 16.3837 15.1734 16.9461C15.8022 17.5504 16.3487 17.806 16.6259 17.9357C16.6802 17.9611 16.7241 17.9816 16.7563 17.999C16.9531 18.1053 17.0679 18.0866 17.1828 17.9457C17.2976 17.8048 17.673 17.3251 17.8041 17.1126C17.9351 16.9 18.067 16.9334 18.2471 17.0063C18.4273 17.0792 19.395 17.5923 19.5921 17.6985C19.6305 17.7192 19.6664 17.7379 19.6996 17.7552C19.8369 17.8266 19.9291 17.8746 19.9698 17.9461C20.0204 18.0349 20.0223 18.4579 19.8565 18.9551C19.6907 19.4523 18.8866 19.9266 18.5266 19.9637C18.4927 19.9672 18.459 19.9716 18.4244 19.9761C18.0909 20.0197 17.6703 20.0747 16.1649 19.4344C14.3149 18.6474 13.0947 16.6962 12.8448 16.2965C12.8246 16.2642 12.8107 16.242 12.8033 16.2314L12.8006 16.2276C12.6929 16.0722 12 15.0729 12 14.0367C12 13.0583 12.4455 12.5458 12.6505 12.31C12.6645 12.2939 12.6774 12.2791 12.6889 12.2655C12.7546 12.1847 12.8351 12.1194 12.9253 12.0737C13.0155 12.028 13.1135 12.0029 13.2131 12C13.3446 12 13.4775 12 13.5908 12.0053Z" fill="white"/>
</g>
</svg>
