<svg width="40" height="40" viewBox="0 0 40 40" fill="none" xmlns="http://www.w3.org/2000/svg">
<circle cx="20" cy="20" r="20" fill="#FFB200"/>
<path d="M19.0486 12.2605C19.348 11.3392 20.6514 11.3392 20.9507 12.2605L22.17 16.013C22.3039 16.425 22.6878 16.704 23.121 16.704H27.0666C28.0353 16.704 28.4381 17.9436 27.6544 18.513L24.4624 20.8321C24.1119 21.0868 23.9652 21.5382 24.0991 21.9502L25.3183 25.7026C25.6177 26.6239 24.5632 27.3901 23.7795 26.8207L20.5875 24.5015C20.237 24.2469 19.7624 24.2469 19.4119 24.5015L16.2199 26.8207C15.4361 27.3901 14.3817 26.6239 14.681 25.7026L15.9003 21.9502C16.0341 21.5382 15.8875 21.0868 15.537 20.8321L12.345 18.513C11.5613 17.9436 11.964 16.704 12.9328 16.704H16.8783C17.3115 16.704 17.6955 16.425 17.8294 16.013L19.0486 12.2605Z" fill="white"/>
</svg>
