<svg width="123" height="32" viewBox="0 0 123 32" fill="none" xmlns="http://www.w3.org/2000/svg">
<path d="M66.2051 32L54.5469 0H59.2087L68.9178 27.12H70.0014L79.7105 0H84.3723L72.7142 32H66.2051Z" fill="#1F1F1F"/>
<path fill-rule="evenodd" clip-rule="evenodd" d="M88.4364 32V0H102.538C104.313 0 105.898 0.392727 107.309 1.16364C108.72 1.94182 109.811 3.01091 110.589 4.36364C111.367 5.72364 111.753 7.25091 111.753 8.94545C111.753 10.0655 111.571 11.0764 111.207 11.9855C110.844 12.8873 110.393 13.6291 109.855 14.2109C109.309 14.7927 108.771 15.2073 108.226 15.4618V15.7309C109.273 16.1673 110.211 16.9964 111.047 18.2255C111.876 19.4545 112.291 20.9745 112.291 22.7782C112.291 24.48 111.884 26.0291 111.069 27.44C110.255 28.8509 109.142 29.9636 107.731 30.7782C106.32 31.5927 104.764 32 103.069 32H88.4364ZM102.538 13.8327C103.513 13.8327 104.371 13.6364 105.113 13.2364C105.855 12.8364 106.422 12.2691 106.822 11.5273C107.222 10.7855 107.418 9.92727 107.418 8.95273C107.418 7.46909 106.975 6.28364 106.087 5.40364C105.2 4.51636 104.015 4.07273 102.538 4.07273H92.7782V13.8327H102.538ZM103.084 27.9345C104.458 27.9345 105.615 27.4473 106.553 26.4727C107.491 25.4982 107.964 24.2691 107.964 22.7855C107.964 21.3018 107.491 20.0727 106.553 19.0982C105.615 18.1236 104.458 17.6364 103.084 17.6364H92.7782V27.9418H103.084V27.9345Z" fill="#1F1F1F"/>
<path d="M118.524 0V32H122.866V0H118.524Z" fill="#1F1F1F"/>
<path d="M21.8182 21.8182L0 0H43.6364L21.8182 21.8182Z" fill="#FFB200"/>
<path d="M0 10.1818L21.8182 32H0V10.1818Z" fill="#FF0099"/>
<path d="M43.6346 10.1818L21.8164 32H43.6346V10.1818Z" fill="#FF0099"/>
</svg>
